:FULLY-SPECIFIED
:FORCE-ALL-JOINTS-BE-3DOF
:DEGREES
1937
root 5.46414 13.7615 28.1946 1036.41 65.1142 312.184
lfemur -62.7669 11.7138 -9.05681
ltibia 67.5355 0 0
lfoot -4.66141 -0.0580932 0
ltoes -33.012 0 0
rfemur -4.42965 -5.55108 18.495
rtibia 61.9585 0 0
rfoot -25.9728 -30.006 0
rtoes -27.3432 0 0
lowerback 13.0021 4.4403 4.50398
upperback -0.811703 7.00708 3.55305
thorax -8.10759 3.3272 -0.0828853
lowerneck -0.314202 14.9763 7.16632
upperneck 5.24789 20.401 -7.41741
head 3.44253 10.1623 -2.75635
lclavicle 9.95613e-15 -2.44006e-14 0
lhumerus 67.4265 -28.272 51.7413
lradius 46.3552 0 0
lwrist 4.51182 0 0
lhand -13.5259 34.4378 0
lfingers 7.12502 0 0
lthumb 12.5872 77.6142 0
rclavicle 9.95613e-15 -2.44006e-14 0
rhumerus -41.6974 25.2362 -76.2785
rradius 92.6624 0 0
rwrist -36.2253 0 0
rhand -13.0867 -403.383 0
rfingers 7.12502 0 0
rthumb 13.0082 287.067 0
1938
root 5.3246 13.7751 28.2275 1032.93 65.2177 308.66
lfemur -62.9578 11.5494 -9.95478
ltibia 67.2432 0 0
lfoot -4.79942 0.220319 0
ltoes -32.9946 0 0
rfemur -4.86166 -5.53457 18.8964
rtibia 62.0667 0 0
rfoot -26.2777 -30.1939 0
rtoes -27.4073 0 0
lowerback 13.0838 4.3174 4.57715
upperback -0.792394 6.86788 3.58194
thorax -8.13684 3.25869 -0.0681034
lowerneck -0.336559 14.9391 7.14372
upperneck 5.14903 20.3462 -7.47653
head 3.41173 10.1345 -2.7782
lclavicle 1.18207e-14 -2.6159e-14 0
lhumerus 68.3524 -29.0165 50.3588
lradius 48.9252 0 0
lwrist 5.42882 0 0
lhand -13.5888 34.5584 0
lfingers 7.12502 0 0
lthumb 12.5265 80.393 0
rclavicle 1.18207e-14 -2.6159e-14 0
rhumerus -41.2264 26.0324 -76.1166
rradius 92.8929 0 0
rwrist -36.4883 0 0
rhand -12.8685 -403.316 0
rfingers 7.12502 0 0
rthumb 13.2183 287.149 0
1939
root 5.18506 13.7887 28.2605 1029.32 65.3164 305.009
lfemur -63.1523 11.3906 -10.8812
ltibia 66.9448 0 0
lfoot -4.94778 0.507172 0
ltoes -32.9733 0 0
rfemur -5.30316 -5.51712 19.3141
rtibia 62.1655 0 0
rfoot -26.5969 -30.3893 0
rtoes -27.4776 0 0
lowerback 13.1692 4.19014 4.65649
upperback -0.772076 6.72453 3.61345
thorax -8.16702 3.18805 -0.0532234
lowerneck -0.360612 14.9007 7.1197
upperneck 5.04752 20.2895 -7.53698
head 3.38011 10.1058 -2.80038
lclavicle 1.36639e-14 -2.79906e-14 0
lhumerus 69.3135 -29.7608 48.9598
lradius 51.5751 0 0
lwrist 6.31303 0 0
lhand -13.6683 34.6876 0
lfingers 7.12502 0 0
lthumb 12.4499 83.2957 0
rclavicle 1.36639e-14 -2.79906e-14 0
rhumerus -40.7642 26.8531 -75.9629
rradius 93.1529 0 0
rwrist -36.7937 0 0
rhand -12.6428 -403.245 0
rfingers 7.12502 0 0
rthumb 13.4357 287.237 0
1940
root 5.04551 13.8023 28.2934 1025.6 65.4094 301.241
lfemur -63.3493 11.2376 -11.8326
ltibia 66.6411 0 0
lfoot -5.10569 0.802054 0
ltoes -32.9479 0 0
rfemur -5.75317 -5.49878 19.7462
rtibia 62.2557 0 0
rfoot -26.9285 -30.5915 0
rtoes -27.5527 0 0
lowerback 13.2579 4.05889 4.74131
upperback -0.750857 6.57735 3.64738
thorax -8.19799 3.11544 -0.0381536
lowerneck -0.386308 14.861 7.09426
upperneck 4.94364 20.231 -7.59853
head 3.34775 10.0761 -2.82281
lclavicle 1.5483e-14 -2.98851e-14 0
lhumerus 70.3043 -30.5025 47.5484
lradius 54.2944 0 0
lwrist 7.16395 0 0
lhand -13.7633 34.8249 0
lfingers 7.12502 0 0
lthumb 12.3582 86.2905 0
rclavicle 1.5483e-14 -2.98851e-14 0
rhumerus -40.3118 27.695 -75.8175
rradius 93.4402 0 0
rwrist -37.139 0 0
rhand -12.4102 -403.17 0
rfingers 7.12502 0 0
rthumb 13.6599 287.328 0
1941
root 4.90597 13.8159 28.3264 1021.77 65.4959 297.368
lfemur -63.548 11.0908 -12.8057
ltibia 66.3331 0 0
lfoot -5.27236 1.10455 0
ltoes -32.9187 0 0
rfemur -6.21067 -5.47959 20.1907
rtibia 62.338 0 0
rfoot -27.2702 -30.7993 0
rtoes -27.6315 0 0
lowerback 13.3495 3.92401 4.83095
upperback -0.728845 6.42663 3.68351
thorax -8.22961 3.04103 -0.022802
lowerneck -0.413595 14.8201 7.06741
upperneck 4.83767 20.1706 -7.66096
head 3.31473 10.0455 -2.84541
lclavicle 1.72755e-14 -3.18324e-14 0
lhumerus 71.3193 -31.2392 46.1286
lradius 57.0722 0 0
lwrist 7.9811 0 0
lhand -13.8731 34.9695 0
lfingers 7.12502 0 0
lthumb 12.2524 89.3453 0
rclavicle 1.72755e-14 -3.18324e-14 0
rhumerus -39.8701 28.5546 -75.6806
rradius 93.7527 0 0
rwrist -37.5214 0 0
rhand -12.1711 -403.092 0
rfingers 7.12502 0 0
rthumb 13.8902 287.423 0
1942
root 4.76643 13.8295 28.3593 1017.85 65.575 293.403
lfemur -63.7471 10.9504 -13.7971
ltibia 66.0215 0 0
lfoot -5.44698 1.41426 0
ltoes -32.8855 0 0
rfemur -6.67466 -5.4596 20.6456
rtibia 62.4132 0 0
rfoot -27.6202 -31.0121 0
rtoes -27.7128 0 0
lowerback 13.4434 3.78586 4.92472
upperback -0.706148 6.27269 3.72162
thorax -8.26174 2.96498 -0.0070768
lowerneck -0.442418 14.7779 7.03915
upperneck 4.7299 20.1083 -7.72404
head 3.28111 10.0138 -2.8681
lclavicle 1.90386e-14 -3.3822e-14 0
lhumerus 72.353 -31.9688 44.7047
lradius 59.8978 0 0
lwrist 8.76398 0 0
lhand -13.9966 35.1208 0
lfingers 7.12502 0 0
lthumb 12.1333 92.428 0
rclavicle 1.90386e-14 -3.3822e-14 0
rhumerus -39.4401 29.4286 -75.5523
rradius 94.0883 0 0
rwrist -37.9385 0 0
rhand -11.926 -403.011 0
rfingers 7.12502 0 0
rthumb 14.1263 287.522 0
1943
root 4.62688 13.8431 28.3923 1013.86 65.6461 289.357
lfemur -63.9455 10.8167 -14.8033
ltibia 65.7074 0 0
lfoot -5.62877 1.73076 0
ltoes -32.8485 0 0
rfemur -7.14414 -5.43885 21.1089
rtibia 62.4818 0 0
rfoot -27.9762 -31.2288 0
rtoes -27.7955 0 0
lowerback 13.5393 3.64482 5.02195
upperback -0.682873 6.11584 3.76149
thorax -8.29425 2.88746 0.00911379
lowerneck -0.472726 14.7344 7.00949
upperneck 4.62061 20.044 -7.78755
head 3.24698 9.98117 -2.89079
lclavicle 2.07695e-14 -3.58438e-14 0
lhumerus 73.4001 -32.6889 43.2805
lradius 62.7606 0 0
lwrist 9.51212 0 0
lhand -14.1329 35.2782 0
lfingers 7.12502 0 0
lthumb 12.0017 95.5066 0
rclavicle 2.07695e-14 -3.58438e-14 0
rhumerus -39.0227 30.3136 -75.4328
rradius 94.4447 0 0
rwrist -38.3877 0 0
rhand -11.6754 -402.928 0
rfingers 7.12502 0 0
rthumb 14.3677 287.624 0
1944
root 4.48734 13.8567 28.4252 1009.8 65.7081 285.242
lfemur -64.1423 10.69 -15.821
ltibia 65.3916 0 0
lfoot -5.81691 2.05365 0
ltoes -32.8077 0 0
rfemur -7.61811 -5.41737 21.5786
rtibia 62.5446 0 0
rfoot -28.3362 -31.4485 0
rtoes -27.8783 0 0
lowerback 13.6367 3.50124 5.12197
upperback -0.659129 5.95639 3.80291
thorax -8.32697 2.80864 0.0258617
lowerneck -0.504466 14.6895 6.97843
upperneck 4.51009 19.9778 -7.85127
head 3.2124 9.94751 -2.91341
lclavicle 2.24657e-14 -3.78873e-14 0
lhumerus 74.455 -33.3972 41.8604
lradius 65.6499 0 0
lwrist 10.225 0 0
lhand -14.2812 35.441 0
lfingers 7.12502 0 0
lthumb 11.8587 98.5492 0
rclavicle 2.24657e-14 -3.78873e-14 0
rhumerus -38.6189 31.2062 -75.3223
rradius 94.82 0 0
rwrist -38.8663 0 0
rhand -11.4198 -402.842 0
rfingers 7.12502 0 0
rthumb 14.6139 287.728 0
1945
root 4.3478 13.8703 28.4581 1005.68 65.7604 281.069
lfemur -64.3364 10.5705 -16.8468
ltibia 65.075 0 0
lfoot -6.01062 2.38251 0
ltoes -32.7632 0 0
rfemur -8.09556 -5.39521 22.0527
rtibia 62.6023 0 0
rfoot -28.6981 -31.6704 0
rtoes -27.9601 0 0
lowerback 13.7351 3.35549 5.2241
upperback -0.635022 5.79464 3.84565
thorax -8.35979 2.72868 0.0432586
lowerneck -0.537584 14.6432 6.94598
upperneck 4.39861 19.9096 -7.91496
head 3.17745 9.91282 -2.93587
lclavicle 2.41245e-14 -3.99424e-14 0
lhumerus 75.5123 -34.0914 40.4482
lradius 68.555 0 0
lwrist 10.9021 0 0
lhand -14.4405 35.6086 0
lfingers 7.12502 0 0
lthumb 11.705 101.524 0
rclavicle 2.41245e-14 -3.99424e-14 0
rhumerus -38.2296 32.1031 -75.2209
rradius 95.2118 0 0
rwrist -39.3717 0 0
rhand -11.1597 -402.753 0
rfingers 7.12502 0 0
rthumb 14.8645 287.836 0
1946
root 4.20826 13.8839 28.4911 1001.52 65.8022 276.851
lfemur -64.5266 10.4586 -17.8772
ltibia 64.7585 0 0
lfoot -6.20909 2.71693 0
ltoes -32.715 0 0
rfemur -8.57548 -5.37241 22.5292
rtibia 62.6556 0 0
rfoot -29.0598 -31.8935 0
rtoes -28.0396 0 0
lowerback 13.8341 3.20793 5.32766
upperback -0.610662 5.63091 3.8895
thorax -8.39256 2.64775 0.0613966
lowerneck -0.572028 14.5954 6.91215
upperneck 4.28647 19.8393 -7.97841
head 3.14219 9.87709 -2.9581
lclavicle 2.57431e-14 -4.19988e-14 0
lhumerus 76.5666 -34.7692 39.0481
lradius 71.4651 0 0
lwrist 11.5431 0 0
lhand -14.6099 35.7802 0
lfingers 7.12502 0 0
lthumb 11.5416 104.398 0
rclavicle 2.57431e-14 -4.19988e-14 0
rhumerus -37.8558 33.0008 -75.1289
rradius 95.6182 0 0
rwrist -39.9015 0 0
rhand -10.8956 -402.663 0
rfingers 7.12502 0 0
rthumb 15.1189 287.945 0
1947
root 4.06871 13.8975 28.524 997.32 65.8326 272.599
lfemur -64.712 10.3544 -18.9089
ltibia 64.443 0 0
lfoot -6.41154 3.0565 0
ltoes -32.6632 0 0
rfemur -9.05688 -5.34901 23.0062
rtibia 62.7052 0 0
rfoot -29.4193 -32.117 0
rtoes -28.1157 0 0
lowerback 13.9333 3.05893 5.43199
upperback -0.586155 5.46552 3.93424
thorax -8.42513 2.56601 0.0803674
lowerneck -0.607744 14.5462 6.87693
upperneck 4.17394 19.7669 -8.0414
head 3.10671 9.84031 -2.98
lclavicle 2.73189e-14 -4.40462e-14 0
lhumerus 77.6124 -35.4282 37.6642
lradius 74.3696 0 0
lwrist 12.1473 0 0
lhand -14.7885 35.9553 0
lfingers 7.12502 0 0
lthumb 11.3692 107.14 0
rclavicle 2.73189e-14 -4.40462e-14 0
rhumerus -37.4984 33.896 -75.0464
rradius 96.0368 0 0
rwrist -40.4529 0 0
rhand -10.6281 -402.572 0
rfingers 7.12502 0 0
rthumb 15.3766 288.056 0
1948
root 3.92917 13.9111 28.557 993.104 65.8508 268.325
lfemur -64.8914 10.2584 -19.9386
ltibia 64.1294 0 0
lfoot -6.61715 3.40082 0
ltoes -32.6077 0 0
rfemur -9.53876 -5.32506 23.4815
rtibia 62.7518 0 0
rfoot -29.7745 -32.3399 0
rtoes -28.1872 0 0
lowerback 14.0321 2.90885 5.5364
upperback -0.561611 5.29876 3.97965
thorax -8.45736 2.48363 0.100263
lowerneck -0.644679 14.4954 6.84034
upperneck 4.06132 19.6925 -8.10369
head 3.07107 9.80246 -3.00151
lclavicle 2.88492e-14 -4.60742e-14 0
lhumerus 78.6442 -36.0663 36.3006
lradius 77.2578 0 0
lwrist 12.7143 0 0
lhand -14.9754 36.1332 0
lfingers 7.12502 0 0
lthumb 11.1889 109.718 0
rclavicle 2.88492e-14 -4.60742e-14 0
rhumerus -37.1584 34.7852 -74.9735
rradius 96.4657 0 0
rwrist -41.0234 0 0
rhand -10.3575 -402.479 0
rfingers 7.12502 0 0
rthumb 15.6372 288.169 0
1949
root 3.78963 13.9248 28.5899 988.879 65.856 264.041
lfemur -65.0637 10.1708 -20.9627
ltibia 63.8185 0 0
lfoot -6.82514 3.74946 0
ltoes -32.5487 0 0
rfemur -10.0201 -5.3006 23.9534
rtibia 62.7961 0 0
rfoot -30.1233 -32.5613 0
rtoes -28.253 0 0
lowerback 14.1303 2.75805 5.64022
upperback -0.537135 5.13094 4.02552
thorax -8.48912 2.40077 0.121175
lowerneck -0.682782 14.4431 6.80238
upperneck 3.94888 19.6159 -8.16506
head 3.03535 9.76353 -3.02254
lclavicle 3.03313e-14 -4.80727e-14 0
lhumerus 79.6567 -36.6809 34.9613
lradius 80.1189 0 0
lwrist 13.2436 0 0
lhand -15.1696 36.3132 0
lfingers 7.12502 0 0
lthumb 11.0015 112.1 0
rclavicle 3.03313e-14 -4.80727e-14 0
rhumerus -36.8368 35.6652 -74.9105
rradius 96.9027 0 0
rwrist -41.6104 0 0
rhand -10.0844 -402.385 0
rfingers 7.12502 0 0
rthumb 15.9002 288.283 0
1950
root 3.65008 13.9384 28.6229 984.656 65.8473 259.758
lfemur -65.228 10.0918 -21.9779
ltibia 63.5112 0 0
lfoot -7.03471 4.10202 0
ltoes -32.4863 0 0
rfemur -10.4999 -5.27566 24.4197
rtibia 62.8388 0 0
rfoot -30.4636 -32.7803 0
rtoes -28.3117 0 0
lowerback 14.2272 2.6069 5.74278
upperback -0.512837 4.96239 4.07162
thorax -8.52026 2.31761 0.143195
lowerneck -0.721998 14.3891 6.76306
upperneck 3.83691 19.5372 -8.22528
head 2.99962 9.7235 -3.043
lclavicle 3.17625e-14 -5.00313e-14 0
lhumerus 80.6443 -37.2699 33.6504
lradius 82.9424 0 0
lwrist 13.7347 0 0
lhand -15.3703 36.4946 0
lfingers 7.12502 0 0
lthumb 10.8079 114.253 0
rclavicle 3.17625e-14 -5.00313e-14 0
rhumerus -36.5344 36.5325 -74.8574
rradius 97.3455 0 0
rwrist -42.2113 0 0
rhand -9.8093 -402.291 0
rfingers 7.12502 0 0
rthumb 16.1652 288.398 0
